<svg xmlns="http://www.w3.org/2000/svg" xmlns:xlink="http://www.w3.org/1999/xlink" width="29" height="46" viewBox="0 0 29 46">
  <defs>
    <polygon id="note-a" points="0 0 28.417 0 28.417 45.948 0 45.948"/>
  </defs>
  <g fill="none" fill-rule="evenodd">
    <mask id="note-b" fill="#fff">
      <use xlink:href="#note-a"/>
    </mask>
    <path fill="#998675" d="M28.4171,24.4681 C28.4171,18.6041 25.9421,15.7991 21.0561,12.4121 C16.7541,9.4311 15.7281,3.5841 15.4911,1.4441 L15.4911,0.7081 C15.4911,0.3201 15.1771,0.0001 14.7871,0.0001 C14.3921,0.0001 14.0771,0.3201 14.0771,0.7081 L14.0771,35.0641 C12.1831,33.4701 8.7081,33.2911 5.4081,34.8231 C1.3331,36.7181 -0.9299,40.5051 0.3641,43.2871 C1.6561,46.0651 6.0091,46.7831 10.0831,44.8931 C13.3751,43.3631 15.4771,40.6001 15.4891,38.1281 C15.4911,38.1251 15.4911,38.1241 15.4911,38.1171 L15.4911,38.0811 L15.4911,38.0741 L15.4911,11.0231 C16.4591,15.5661 27.7371,16.9431 27.7371,25.0981 C27.7371,30.2841 25.7011,34.1281 25.7011,34.1281 C25.7011,34.1281 28.4171,30.3331 28.4171,24.4681" mask="url(#note-b)"/>
  </g>
</svg>
