<svg xmlns="http://www.w3.org/2000/svg" xmlns:xlink="http://www.w3.org/1999/xlink" width="238" height="335" viewBox="0 0 238 335">
  <defs>
    <polygon id="scale_height-a" points=".529 .247 17.471 .247 17.471 7.659 .529 7.659"/>
    <polygon id="scale_height-c" points=".529 .247 17.471 .247 17.471 7.659 .529 7.659"/>
    <polygon id="scale_height-e" points=".647 .302 21.353 .302 21.353 9.361 .647 9.361"/>
    <polygon id="scale_height-g" points=".647 .302 21.353 .302 21.353 9.361 .647 9.361"/>
    <polygon id="scale_height-i" points=".529 .247 17.471 .247 17.471 7.659 .529 7.659"/>
    <polygon id="scale_height-k" points=".529 .247 17.471 .247 17.471 7.659 .529 7.659"/>
  </defs>
  <g fill="none" fill-rule="evenodd">
    <g transform="translate(23 1)">
      <text fill="#3D342B" font-family="UtopiaStd-Capt, Utopia Std" font-size="16">
        <tspan x="6" y="96">‘PEOPLE </tspan> <tspan x="6" y="119.2">HOLDING </tspan> <tspan x="6" y="142.4">THE SAME </tspan> <tspan x="6" y="165.6">JOB TITLE’</tspan> <tspan x="6" y="188.8">SCALE</tspan>
      </text>
      <g transform="translate(20.233 51.5)">
        <line x1="8.267" x2="28.267" y1="9" y2="9" stroke="#5D5246" stroke-linecap="round" stroke-width="2.2"/>
        <g transform="matrix(0 -1 -1 0 35.235 18.235)">
          <mask id="scale_height-b" fill="#fff">
            <use xlink:href="#scale_height-a"/>
          </mask>
          <path fill="#231F20" d="M8.94831891,5.59010035 C8.05838181,-2.057198 0.529411765,0.750309179 0.529411765,0.750309179 C0.529411765,0.750309179 6.17457751,0.307553947 8.77453412,6.65656761 C8.55361164,6.7192065 8.39061742,6.91247692 8.38834572,7.14161748 C8.38493818,7.42429555 8.62573801,7.65611298 8.92560194,7.65882353 C9.22546588,7.6620021 9.47080909,7.43500305 9.47421664,7.15232498 C9.47648834,6.92264905 9.31803751,6.72723713 9.09825087,6.65977986 C11.8362131,0.362697585 17.4705882,0.915204719 17.4705882,0.915204719 C17.4705882,0.915204719 10.0046578,-2.03845987 8.94831891,5.59010035" mask="url(#scale_height-b)"/>
        </g>
        <g transform="rotate(-90 9.5 8.735)">
          <mask id="scale_height-d" fill="#fff">
            <use xlink:href="#scale_height-c"/>
          </mask>
          <path fill="#231F20" d="M8.94831891,5.59010035 C8.05838181,-2.057198 0.529411765,0.750309179 0.529411765,0.750309179 C0.529411765,0.750309179 6.17457751,0.307553947 8.77453412,6.65656761 C8.55361164,6.7192065 8.39061742,6.91247692 8.38834572,7.14161748 C8.38493818,7.42429555 8.62573801,7.65611298 8.92560194,7.65882353 C9.22546588,7.6620021 9.47080909,7.43500305 9.47421664,7.15232498 C9.47648834,6.92264905 9.31803751,6.72723713 9.09825087,6.65977986 C11.8362131,0.362697585 17.4705882,0.915204719 17.4705882,0.915204719 C17.4705882,0.915204719 10.0046578,-2.03845987 8.94831891,5.59010035" mask="url(#scale_height-d)"/>
        </g>
      </g>
      <text fill="#3D342B" font-family="UtopiaStd-Regular, Utopia Std" font-size="22">
        <tspan x=".7" y="59.992">1</tspan>
      </text>
      <text fill="#3D342B" font-family="UtopiaStd-Regular, Utopia Std" font-size="22">
        <tspan x="64" y="65">62</tspan>
      </text>
      <g stroke="#807160" stroke-dasharray="3" opacity=".68" transform="translate(6)">
        <path d="M15.7370058,84.3904615 C19.5738648,77.6808153 22.0142159,67.5980858 22.0142159,56.3240373 C22.0142159,49.3937547 21.0920812,42.9136356 19.4902762,37.3904615" transform="rotate(-4 18.876 60.89)"/>
        <path d="M0,125 C22.416975,112.5 43,93.75 43,62.5 C43,53.0525446 41.1187832,44.7475457 37.8744026,37.4123104 C30.3871219,20.4842818 15.6399071,8.72101784 0,0"/>
      </g>
    </g>
    <g transform="translate(84.233 15)">
      <g transform="rotate(90 61.75 62.25)">
        <line x1="9.267" x2="309.267" y1="11" y2="11" stroke="#5D5246" stroke-linecap="round" stroke-width="2.2"/>
        <g transform="rotate(-90 11.5 10.676)">
          <mask id="scale_height-f" fill="#fff">
            <use xlink:href="#scale_height-e"/>
          </mask>
          <path fill="#231F20" d="M10.9368342,6.83234487 C9.84913332,-2.51435311 0.647058824,0.917044552 0.647058824,0.917044552 C0.647058824,0.917044552 7.54670584,0.375899268 10.7244306,8.13580486 C10.4544142,8.2123635 10.2551991,8.44858291 10.2524226,8.72864358 C10.2482578,9.074139 10.5425687,9.35747142 10.909069,9.36078431 C11.2755694,9.36466924 11.5754333,9.08722595 11.5795981,8.74173053 C11.5823746,8.46101551 11.3887125,8.22217871 11.1200844,8.13973094 C14.4664826,0.443297048 21.3529412,1.11858355 21.3529412,1.11858355 C21.3529412,1.11858355 12.227915,-2.49145095 10.9368342,6.83234487" mask="url(#scale_height-f)"/>
        </g>
        <g transform="matrix(0 -1 -1 0 318.176 22.176)">
          <mask id="scale_height-h" fill="#fff">
            <use xlink:href="#scale_height-g"/>
          </mask>
          <path fill="#231F20" d="M10.9368342,6.83234487 C9.84913332,-2.51435311 0.647058824,0.917044552 0.647058824,0.917044552 C0.647058824,0.917044552 7.54670584,0.375899268 10.7244306,8.13580486 C10.4544142,8.2123635 10.2551991,8.44858291 10.2524226,8.72864358 C10.2482578,9.074139 10.5425687,9.35747142 10.909069,9.36078431 C11.2755694,9.36466924 11.5754333,9.08722595 11.5795981,8.74173053 C11.5823746,8.46101551 11.3887125,8.22217871 11.1200844,8.13973094 C14.4664826,0.443297048 21.3529412,1.11858355 21.3529412,1.11858355 C21.3529412,1.11858355 12.227915,-2.49145095 10.9368342,6.83234487" mask="url(#scale_height-h)"/>
        </g>
      </g>
      <g stroke="#807160" stroke-dasharray="3" opacity=".68" transform="translate(112.767 8)">
        <path d="M23,153 C23,76.5 11.990475,30.6 0,0"/>
        <path d="M23,304 C23,227.5 11.990475,181.6 0,151" transform="matrix(1 0 0 -1 0 455)"/>
      </g>
      <g transform="rotate(90 -17.75 119.25)">
        <line x1="8.267" x2="38.267" y1="9" y2="9" stroke="#5D5246" stroke-linecap="round" stroke-width="2.2"/>
        <g transform="matrix(0 -1 -1 0 45.235 18.235)">
          <mask id="scale_height-j" fill="#fff">
            <use xlink:href="#scale_height-i"/>
          </mask>
          <path fill="#231F20" d="M8.94831891,5.59010035 C8.05838181,-2.057198 0.529411765,0.750309179 0.529411765,0.750309179 C0.529411765,0.750309179 6.17457751,0.307553947 8.77453412,6.65656761 C8.55361164,6.7192065 8.39061742,6.91247692 8.38834572,7.14161748 C8.38493818,7.42429555 8.62573801,7.65611298 8.92560194,7.65882353 C9.22546588,7.6620021 9.47080909,7.43500305 9.47421664,7.15232498 C9.47648834,6.92264905 9.31803751,6.72723713 9.09825087,6.65977986 C11.8362131,0.362697585 17.4705882,0.915204719 17.4705882,0.915204719 C17.4705882,0.915204719 10.0046578,-2.03845987 8.94831891,5.59010035" mask="url(#scale_height-j)"/>
        </g>
        <g transform="rotate(-90 9.5 8.735)">
          <mask id="scale_height-l" fill="#fff">
            <use xlink:href="#scale_height-k"/>
          </mask>
          <path fill="#231F20" d="M8.94831891,5.59010035 C8.05838181,-2.057198 0.529411765,0.750309179 0.529411765,0.750309179 C0.529411765,0.750309179 6.17457751,0.307553947 8.77453412,6.65656761 C8.55361164,6.7192065 8.39061742,6.91247692 8.38834572,7.14161748 C8.38493818,7.42429555 8.62573801,7.65611298 8.92560194,7.65882353 C9.22546588,7.6620021 9.47080909,7.43500305 9.47421664,7.15232498 C9.47648834,6.92264905 9.31803751,6.72723713 9.09825087,6.65977986 C11.8362131,0.362697585 17.4705882,0.915204719 17.4705882,0.915204719 C17.4705882,0.915204719 10.0046578,-2.03845987 8.94831891,5.59010035" mask="url(#scale_height-l)"/>
        </g>
      </g>
      <path stroke="#807160" stroke-dasharray="3" d="M91.7666667,176 C96.1849447,176 99.7666667,169.060414 99.7666667,160.5 C99.7666667,151.939586 96.1849447,145 91.7666667,145" opacity=".68"/>
      <text fill="#3D342B" font-family="UtopiaStd-Regular, Utopia Std" font-size="22">
        <tspan x="118.767" y="164">175</tspan>
      </text>
      <text fill="#3D342B" font-family="UtopiaStd-Regular, Utopia Std" font-size="22">
        <tspan x="62.767" y="164">30</tspan>
      </text>
      <text fill="#3D342B" font-family="UtopiaStd-Capt, Utopia Std" font-size="16">
        <tspan x="25.231" y="203">‘NUMBER </tspan> <tspan x="14.911" y="226.2">OF PEOPLE </tspan> <tspan x="4.031" y="249.4">IN A GROUP’ </tspan> <tspan x="49.119" y="272.6">SCALE </tspan>
      </text>
    </g>
  </g>
</svg>
