<svg xmlns="http://www.w3.org/2000/svg" xmlns:xlink="http://www.w3.org/1999/xlink" width="178" height="152"><defs><path id="a" d="M.647.302h20.706v9.059H.647z"/><path id="c" d="M.647.302h20.706v9.059H.647z"/></defs><g fill="none" fill-rule="evenodd"><g stroke="#807160" stroke-dasharray="3" opacity=".68"><path d="M169 76.5C169 38.75 91.455 16.1 7 1M169 76c0 37.75-77.545 60.4-162 75.5M9 76.5C9 38.75 7.085 16.1 5 1M9 76c0 37.75-1.915 60.4-4 75.5"/></g><path stroke="#5D5246" stroke-linecap="round" stroke-width="2.2" d="M8.5 75.5h160"/><g transform="rotate(-90 43.367 43.31)"><mask id="b" fill="#fff"><use xlink:href="#a"/></mask><path fill="#231F20" d="M10.937 6.832C9.849-2.514.647.917.647.917s6.9-.541 10.077 7.219a.633.633 0 00-.472.593c-.004.345.29.628.657.632.367.004.666-.274.67-.62a.632.632 0 00-.459-.601C14.466.443 21.353 1.119 21.353 1.119s-9.125-3.61-10.416 5.713" mask="url(#b)"/></g><g transform="matrix(0 -1 -1 0 177.409 86.676)"><mask id="d" fill="#fff"><use xlink:href="#c"/></mask><path fill="#231F20" d="M10.937 6.832C9.849-2.514.647.917.647.917s6.9-.541 10.077 7.219a.633.633 0 00-.472.593c-.004.345.29.628.657.632.367.004.666-.274.67-.62a.632.632 0 00-.459-.601C14.466.443 21.353 1.119 21.353 1.119s-9.125-3.61-10.416 5.713" mask="url(#d)"/></g><text fill="#3D342B" font-family="UtopiaStd-Regular, Utopia Std" font-size="22" transform="translate(-1 -4)"><tspan x="156" y="107">82</tspan></text><text fill="#3D342B" font-family="UtopiaStd-Regular, Utopia Std" font-size="22" transform="translate(-1 -4)"><tspan x=".7" y="101.992">1</tspan></text><text fill="#3D342B" font-family="UtopiaStd-Regular, Utopia Std" font-size="16" transform="translate(-1 -4)"><tspan x="53.236" y="12">‘JOB TITLE </tspan> <tspan x="39.548" y="35.2">CHARACTERS’ </tspan> <tspan x="67.796" y="58.4">SCALE </tspan></text></g></svg>